<?xml version="1.0" encoding="utf-8"?>
<!-- Generator: Adobe Illustrator 16.0.4, SVG Export Plug-In . SVG Version: 6.00 Build 0)  -->
<!DOCTYPE svg PUBLIC "-//W3C//DTD SVG 1.1//EN" "http://www.w3.org/Graphics/SVG/1.1/DTD/svg11.dtd">
<svg version="1.1" id="Layer_1" xmlns="http://www.w3.org/2000/svg" xmlns:xlink="http://www.w3.org/1999/xlink" x="0px" y="0px"
	 width="180px" height="180px" viewBox="0 0 180 180" enable-background="new 0 0 180 180" xml:space="preserve">
<g>
	<path d="M52.428,61.333c0,0-52.085,13.237-45.73,64.782C6.698,126.115,63.715,113.644,52.428,61.333z"/>
	<path d="M76.302,61.333c0,0-52.086,13.237-45.731,64.782C30.571,126.115,87.588,113.644,76.302,61.333z"/>
	<path d="M96.613,61.333c0,0-52.086,13.237-45.73,64.782C50.883,126.115,107.9,113.644,96.613,61.333z"/>
</g>
<g>
	<path d="M108.721,166.888c0-14.561,15.361-24.16,30.562-35.04c2.72-11.841,4-17.441,4.96-23.201
		c-4.641,10.4-11.521,19.041-19.681,19.041c-13.921,0-19.841-14.24-19.841-32.641c0-33.921,19.841-82.083,45.762-82.083
		c3.2,0,6.24,1.12,7.52,2.72c7.2,3.52,9.121,11.52,9.121,20.32c0,10.72-2.881,22.721-3.36,29.761c-0.32,4.16-4.16,5.76-8,5.76
		c-4,0-8.001-1.76-8.001-4.8c0-11.36,9.601-28.48,9.601-40.641c0-2.72-0.479-5.28-1.6-7.36
		c-18.881,0.32-35.681,49.281-35.681,77.762c0,11.84,2.72,20.16,9.6,20.16c7.521,0,13.12-12.16,17.601-24.48
		c1.12-2.4,3.84-3.84,6.561-3.84c3.52,0,6.88,2.24,6.88,7.04c0,3.04-2.4,15.04-3.84,22.561c7.04-6.56,13.439-14.4,18.24-24.321
		c0.8-1.76,1.92-2.56,2.72-2.56c0.64,0,1.12,0.48,1.12,1.601c0,0.64-0.32,1.6-0.64,2.56c-6.08,15.04-14.561,25.12-23.521,32.801
		l-4.001,15.681c-6.56,25.44-18.88,35.2-28.32,35.2C115.922,178.888,108.721,174.248,108.721,166.888z M118.642,173.928
		c5.12,0,12.96-7.04,18.24-32.16c-9.761,7.04-22.561,16.48-22.561,27.04C114.321,171.048,115.602,173.928,118.642,173.928z"/>
</g>
</svg>
